<?xml version="1.0" encoding="utf-8"?>
<!-- Generator: Adobe Illustrator 22.0.1, SVG Export Plug-In . SVG Version: 6.00 Build 0)  -->
<svg version="1.1" id="Layer_1" xmlns="http://www.w3.org/2000/svg" xmlns:xlink="http://www.w3.org/1999/xlink" x="0px" y="0px"
	 viewBox="0 0 26 78" enable-background="new 0 0 26 78" xml:space="preserve">
<g id="_x31_">
	<rect fill-rule="evenodd" clip-rule="evenodd" fill="#933838" width="26" height="26"/>
	<polygon id="plus" fill-rule="evenodd" clip-rule="evenodd" fill="#FFFFFF" points="18,12 14,12 14,8 12,8 12,12 8,12 8,14 12,14 
		12,18 14,18 14,14 18,14 	"/>
</g>
<g id="_x32_">
	<rect y="26" opacity="0" fill-rule="evenodd" clip-rule="evenodd" fill="#FFFFFF" width="26" height="26"/>
	<polygon id="close" fill-rule="evenodd" clip-rule="evenodd" fill="#FFFFFF" points="17.2,41.8 14.4,39 17.2,36.2 15.8,34.8 
		13,37.6 10.2,34.8 8.8,36.2 11.6,39 8.8,41.8 10.2,43.2 13,40.4 15.8,43.2 	"/>
</g>
<g id="_x33_">
	<rect y="52" opacity="0" fill-rule="evenodd" clip-rule="evenodd" fill="#FFFFFF" width="26" height="26"/>
	<path id="arrow" fill="#FFFFFF" d="M15.2,70.2c-0.2,0-0.5-0.1-0.7-0.3l-4.5-4.2c-0.2-0.2-0.3-0.5-0.3-0.7s0.1-0.5,0.3-0.7l4.5-4.2
		c0.4-0.4,1-0.4,1.4,0c0.4,0.4,0.4,1,0,1.4L12.2,65l3.7,3.5c0.4,0.4,0.4,1,0,1.4C15.8,70.1,15.5,70.2,15.2,70.2z"/>
</g>
</svg>
